<svg width="2566" height="722" viewBox="0 0 2566 722" fill="none" xmlns="http://www.w3.org/2000/svg">
<g clip-path="url(#clip0_823_20131)">
<path fill-rule="evenodd" clip-rule="evenodd" d="M258.548 23.6103C258.576 23.5935 258.604 23.5767 258.633 23.5543C259.665 22.8751 260.631 22.1509 261.579 21.3987C287.973 0.332296 315.489 -5.52234 346.85 7.19163C359.654 12.3839 372.363 11.7665 385.189 6.68649C415.652 -5.38757 443.342 -0.330069 467.934 21.1181C479.082 30.8346 491.706 34.6853 506.446 34.4664C536.949 33.9836 560.614 47.2197 575.882 73.5289C584.414 88.1962 595.523 98.1597 611.622 103.835C638.897 113.467 656.14 132.872 661.265 161.527C664.476 179.495 672.548 193.332 686.71 205.254C709.696 224.609 717.263 250.475 710.993 279.748C707.956 293.977 710.595 306.579 717.813 318.614C734.569 346.612 734.877 374.544 718.099 402.655C710.684 415.06 708.091 427.993 711.105 442.75C717.37 473.561 708.265 499.668 683.522 519.663C672.127 528.835 665.088 540.162 662.669 554.745C657.241 587.229 638.919 608.121 607.793 620.308C595.871 624.995 584.549 636.081 577.398 647.122C560.154 673.69 537.016 687.128 509.522 687.874C491.027 686.623 478.599 691.573 467.406 701.206C443.123 722.121 415.674 727.2 385.717 715.413C371.97 710.002 358.863 709.979 345.048 715.413C315.158 727.133 287.687 722.339 263.426 701.183C252.318 691.484 239.738 687.324 225.004 687.481C192.98 687.829 168.894 673.6 153.126 645.781C145.643 632.623 135.113 623.94 120.726 618.966C92.3738 609.199 74.692 589.452 69.4998 559.713C66.4237 542.144 58.2396 528.767 44.4254 517.198C21.3998 497.889 13.7209 472.068 19.7046 442.767C22.7863 427.679 19.8393 414.33 12.2278 401.465C-3.87103 374.19 -3.60722 346.921 12.5589 319.731C19.9684 307.264 22.6965 294.219 19.7944 279.618C13.5918 248.252 23.2465 222.846 47.4172 201.23C56.8306 192.849 64.706 179.737 67.4565 167.489C74.7818 134.825 91.6272 113.097 123.718 101.46C134.625 97.4805 145.363 87.4271 151.65 77.3345C161.826 61.0618 173.99 49.4481 188.86 42.3361L190.954 604.748L261.018 604.462L260.883 568.167C264.998 572.5 269.028 576.485 272.901 580.095C280.187 586.106 286.609 590.822 292.205 594.161C299.486 598.506 307.72 602.216 316.943 605.32C335.349 610.339 350.976 612.803 363.786 612.758L368.518 612.736C399.733 612.606 429.601 603.642 458.083 585.859C463.87 582.452 470.145 578.068 476.904 572.719C482.691 568.099 490.286 560.437 499.682 549.761C508.355 538.821 515.068 528.762 519.89 519.539C534.771 491.411 542.163 461.981 542.034 431.232C541.944 407.987 537.611 385.518 529.068 363.772C521.72 344.418 509.657 325.248 492.885 306.186C484.364 297.755 477.937 291.855 473.581 288.471C454.294 273.607 433.906 263.144 412.407 257.076C397.347 252.821 381.742 250.733 365.593 250.806H365.217C331.341 250.94 301.248 261.589 274.95 282.745C268.675 287.853 263.746 292.849 260.137 297.693H259.761L258.857 73.3492L258.548 23.6103ZM364.049 320.87C364.223 320.864 364.386 320.864 364.555 320.864C395.809 320.87 422.304 332.866 444.061 356.857C462.332 378.799 471.487 403.458 471.599 430.794L471.622 432.242C471.683 448.711 468.231 464.692 461.276 480.207C457.201 489.188 451.06 498.523 442.876 508.228C421.192 531.074 395.568 542.564 366.053 542.671C351.526 542.739 336.864 539.421 322.096 532.685C316.505 530.064 309.837 525.837 302.068 520.072L295.506 514.28C289.674 508.487 285.183 503.429 282.012 499.096C267.642 479.062 260.418 457.182 260.333 433.477L260.311 431.653C260.221 405.523 268.237 382.127 284.347 361.499C286.042 359.057 290.246 354.566 297.005 348.01C304.246 341.448 311.487 336.34 318.728 332.669C334.905 324.872 350.027 320.949 364.049 320.87Z" fill="url(#paint0_linear_823_20131)"/>
<path fill-rule="evenodd" clip-rule="evenodd" d="M258.552 23.6104L258.861 73.3492L259.764 297.693H260.14C263.75 292.849 268.678 287.853 274.954 282.745C301.252 261.589 331.344 250.94 365.22 250.806H365.596C381.746 250.733 397.351 252.821 412.411 257.076C433.91 263.144 454.297 273.607 473.584 288.471C477.94 291.855 484.367 297.755 492.888 306.186C509.66 325.248 521.723 344.418 529.071 363.772C537.614 385.518 541.948 407.987 542.038 431.232C542.167 461.981 534.774 491.411 519.893 519.539C515.072 528.762 508.358 538.821 499.686 549.761C490.289 560.437 482.694 568.099 476.907 572.719C470.149 578.068 463.873 582.452 458.086 585.859C429.604 603.642 399.736 612.606 368.521 612.735L363.789 612.758C350.98 612.803 335.352 610.339 316.946 605.32C307.724 602.216 299.495 598.495 292.209 594.161C286.618 590.816 280.191 586.106 272.905 580.095C269.032 576.485 265.001 572.5 260.887 568.167L261.022 604.462L190.957 604.748L188.863 42.3361C188.908 42.3193 188.953 42.2968 188.998 42.2743C200.062 36.9979 212.602 34.2025 226.96 33.8264C237.491 33.5401 249.587 29.6726 258.552 23.6104ZM364.053 320.87C350.031 320.932 334.909 324.872 318.731 332.669C311.49 336.34 304.249 341.448 297.008 348.01C290.25 354.566 286.046 359.057 284.35 361.499C268.24 382.127 260.225 405.523 260.314 431.653L260.337 433.477C260.421 457.182 267.645 479.062 282.015 499.096C285.187 503.429 289.677 508.487 295.509 514.28L302.071 520.072C309.84 525.837 316.509 530.064 322.099 532.685C336.868 539.421 351.53 542.739 366.057 542.671C395.571 542.564 421.196 531.074 442.88 508.228C451.064 498.523 457.205 489.188 461.28 480.207C468.235 464.692 471.687 448.711 471.625 432.242L471.603 430.794C471.49 403.458 462.335 378.799 444.064 356.857C422.307 332.866 395.813 320.87 364.558 320.865C364.39 320.865 364.227 320.865 364.053 320.87Z" fill="white"/>
<path d="M2406.39 127.12V461.088H2423.51V377.168L2454.34 348.053C2457.76 353.191 2476.6 377.168 2509.14 419.984C2531.41 445.674 2541.69 459.375 2543.4 461.088H2565.66L2468.04 336.064L2563.95 243.581H2538.26L2423.51 353.191V127.12H2406.39ZM1705.91 127.12V461.088H1723.03V414.846L1728.17 423.41C1750.44 449.1 1776.13 462.801 1805.24 462.801H1808.67C1832.64 462.801 1854.91 454.238 1875.46 435.398C1897.72 411.421 1908 384.019 1908 353.191V351.478C1908 324.076 1899.44 300.098 1882.31 277.834C1860.05 253.857 1836.07 241.868 1806.95 241.868C1796.68 241.868 1786.4 243.581 1776.13 247.006C1753.86 255.569 1735.02 269.271 1723.03 289.822V127.12H1705.91ZM1747.01 416.559C1731.6 397.72 1723.03 377.168 1723.03 353.191C1723.03 330.926 1729.88 310.374 1741.87 293.248C1760.71 270.983 1781.26 260.707 1806.95 260.707C1824.08 260.707 1839.49 265.845 1854.91 276.121C1878.88 296.673 1890.87 322.363 1890.87 351.478C1890.87 373.743 1884.02 392.582 1872.03 411.421C1853.2 433.686 1832.64 443.962 1806.95 443.962C1784.69 443.962 1764.14 435.398 1747.01 416.559ZM1118.46 127.12V461.088H1162.99V127.12H1118.46ZM853 127.12V461.088H897.529V438.824C899.242 440.536 902.667 443.962 904.38 445.674C909.518 449.1 912.943 452.525 916.369 454.238C921.507 457.663 926.644 459.375 931.782 461.088C943.771 464.513 954.047 466.226 960.898 466.226H964.323C984.875 466.226 1003.71 461.088 1020.84 449.1C1024.27 447.387 1027.69 445.674 1032.83 442.249C1036.25 438.824 1041.39 433.686 1046.53 426.835C1053.38 419.984 1056.81 414.846 1060.23 407.996C1068.8 390.869 1073.93 372.03 1073.93 353.191C1073.93 337.777 1072.22 324.076 1065.37 310.374C1061.94 298.386 1053.38 286.397 1043.11 274.409C1037.97 269.271 1034.54 265.845 1031.12 262.42C1010.56 247.006 988.3 238.443 964.323 238.443C943.771 238.443 923.219 245.293 906.093 258.995C902.667 262.42 899.242 265.845 897.529 267.558V127.12H853ZM935.208 416.559C931.782 414.846 928.357 411.421 923.219 407.996L918.081 404.57C914.656 401.145 912.943 397.72 911.231 394.295C900.955 382.306 897.529 368.605 897.529 353.191C897.529 336.064 902.667 320.65 912.943 308.662C912.943 306.949 916.369 303.524 919.794 300.098C924.932 294.96 930.07 293.248 933.495 289.822C943.771 284.685 954.047 282.972 962.61 282.972C981.45 282.972 998.576 289.822 1012.28 305.236C1024.27 318.938 1029.4 334.352 1029.4 353.191C1029.4 363.467 1027.69 373.743 1022.55 384.019C1020.84 389.157 1017.42 394.295 1012.28 401.145C998.576 414.846 981.45 421.697 962.61 421.697C954.047 421.697 945.484 419.984 935.208 416.559ZM1544.92 238.443C1524.36 238.443 1505.52 247.006 1484.97 262.42C1457.57 286.397 1443.87 317.225 1443.87 353.191C1443.87 378.881 1452.43 402.858 1467.85 425.122C1490.11 452.525 1515.8 466.226 1548.34 466.226C1579.17 466.226 1604.86 452.525 1628.84 426.835C1635.69 416.559 1640.82 407.996 1642.54 402.858C1642.54 402.858 1628.84 396.007 1603.15 384.019C1601.43 385.731 1601.43 387.444 1598.01 392.582C1584.31 413.134 1568.89 421.697 1548.34 421.697C1532.93 421.697 1519.23 416.559 1507.24 402.858C1498.67 394.295 1491.82 382.306 1488.4 365.179H1652.81C1652.81 365.179 1652.81 363.467 1652.81 360.041V353.191C1652.81 330.926 1647.68 310.374 1637.4 291.535C1632.26 284.685 1625.41 276.121 1615.13 265.845C1594.58 247.006 1574.03 238.443 1551.77 238.443H1544.92ZM1496.96 315.512C1510.66 293.248 1527.79 282.972 1548.34 282.972C1562.04 282.972 1574.03 288.11 1586.02 298.386C1594.58 306.949 1601.43 317.225 1603.15 324.076H1493.54L1496.96 315.512ZM1356.52 241.868V373.743C1356.52 390.869 1351.38 402.858 1341.11 407.996C1334.26 414.846 1320.56 416.559 1301.72 416.559H1298.29C1288.02 416.559 1279.45 414.846 1272.6 413.134C1257.19 406.283 1250.34 394.295 1250.34 375.455V243.581L1248.63 241.868H1205.81V375.455C1205.81 390.869 1209.23 404.57 1214.37 416.559C1231.5 445.674 1260.61 461.088 1300 461.088C1308.57 461.088 1318.84 459.375 1325.69 459.375C1337.68 454.238 1347.96 450.812 1356.52 443.962V459.375H1399.34L1401.05 243.581L1399.34 241.868H1356.52ZM2267.66 243.581C2241.97 243.581 2219.7 253.857 2199.15 274.409C2178.6 296.673 2168.32 322.363 2168.32 351.478V353.191C2168.32 377.168 2175.18 399.432 2190.59 419.984C2211.14 447.387 2236.83 461.088 2267.66 461.088C2293.35 461.088 2315.61 450.812 2336.17 431.973C2356.72 409.708 2366.99 384.019 2366.99 354.903V351.478C2366.99 327.501 2360.14 305.236 2344.73 282.972C2324.18 257.282 2298.49 243.581 2267.66 243.581ZM2219.7 426.835C2197.44 406.283 2185.45 382.306 2185.45 353.191C2185.45 332.639 2190.59 315.512 2202.58 298.386C2219.7 274.409 2241.97 262.42 2267.66 262.42C2289.92 262.42 2310.48 270.983 2325.89 289.822C2341.3 306.949 2349.87 329.214 2349.87 353.191C2349.87 375.455 2343.02 396.007 2327.6 414.846C2310.48 433.686 2289.92 443.962 2267.66 443.962C2250.53 443.962 2235.12 437.111 2219.7 426.835ZM2036.45 243.581C2010.76 243.581 1988.5 253.857 1967.94 274.409C1947.39 296.673 1937.12 322.363 1937.12 351.478V353.191C1937.12 377.168 1943.97 399.432 1959.38 419.984C1981.64 447.387 2007.33 461.088 2036.45 461.088C2062.14 461.088 2086.12 450.812 2104.96 431.973C2125.51 409.708 2137.5 384.019 2137.5 354.903V351.478C2137.5 327.501 2128.93 305.236 2113.52 282.972C2092.97 257.282 2065.57 243.581 2036.45 243.581ZM1990.21 426.835C1966.23 406.283 1954.24 382.306 1954.24 353.191C1954.24 332.639 1961.09 315.512 1971.37 298.386C1990.21 274.409 2010.76 262.42 2036.45 262.42C2058.71 262.42 2079.27 270.983 2096.39 289.822C2111.81 306.949 2118.66 329.214 2118.66 353.191C2118.66 375.455 2111.81 396.007 2096.39 414.846C2079.27 433.686 2060.43 443.962 2036.45 443.962C2021.04 443.962 2003.91 437.111 1990.21 426.835Z" fill="url(#paint1_linear_823_20131)"/>
<path d="M899.822 561.719L906.722 563.462C905.275 569.129 902.667 573.456 898.897 576.443C895.151 579.407 890.563 580.889 885.133 580.889C879.514 580.889 874.937 579.751 871.404 577.475C867.895 575.175 865.216 571.855 863.366 567.516C861.541 563.177 860.628 558.518 860.628 553.539C860.628 548.109 861.659 543.378 863.722 539.348C865.809 535.293 868.761 532.222 872.578 530.136C876.419 528.026 880.64 526.97 885.24 526.97C890.456 526.97 894.843 528.298 898.399 530.954C901.956 533.61 904.434 537.344 905.833 542.157L899.039 543.758C897.83 539.964 896.076 537.202 893.776 535.471C891.476 533.74 888.583 532.875 885.097 532.875C881.09 532.875 877.735 533.835 875.032 535.755C872.353 537.676 870.468 540.26 869.377 543.509C868.286 546.734 867.741 550.065 867.741 553.503C867.741 557.937 868.381 561.814 869.662 565.133C870.966 568.429 872.981 570.895 875.708 572.531C878.435 574.167 881.387 574.985 884.564 574.985C888.429 574.985 891.701 573.871 894.38 571.642C897.06 569.413 898.874 566.105 899.822 561.719ZM915.364 580V527.86H938.483C943.13 527.86 946.663 528.334 949.081 529.282C951.5 530.207 953.432 531.855 954.879 534.226C956.325 536.597 957.048 539.217 957.048 542.086C957.048 545.785 955.851 548.903 953.456 551.44C951.061 553.977 947.362 555.59 942.359 556.277C944.185 557.155 945.572 558.02 946.521 558.874C948.536 560.723 950.445 563.035 952.247 565.809L961.316 580H952.638L945.738 569.152C943.723 566.022 942.063 563.628 940.759 561.968C939.455 560.308 938.281 559.146 937.238 558.482C936.218 557.818 935.175 557.356 934.108 557.095C933.326 556.929 932.045 556.846 930.267 556.846H922.264V580H915.364ZM922.264 550.871H937.096C940.249 550.871 942.715 550.551 944.493 549.911C946.272 549.247 947.623 548.204 948.548 546.781C949.473 545.335 949.935 543.77 949.935 542.086C949.935 539.62 949.034 537.593 947.232 536.004C945.454 534.416 942.632 533.621 938.767 533.621H922.264V550.871ZM968.038 580V527.86H1005.74V534.013H974.938V549.982H1003.78V556.099H974.938V573.847H1006.95V580H968.038ZM1016.48 580V527.86H1034.44C1038.5 527.86 1041.59 528.109 1043.72 528.607C1046.71 529.294 1049.26 530.539 1051.37 532.341C1054.12 534.665 1056.17 537.64 1057.52 541.268C1058.9 544.872 1059.59 548.998 1059.59 553.645C1059.59 557.605 1059.12 561.114 1058.2 564.173C1057.27 567.232 1056.09 569.769 1054.64 571.784C1053.2 573.776 1051.61 575.353 1049.88 576.514C1048.17 577.653 1046.09 578.518 1043.65 579.111C1041.23 579.704 1038.45 580 1035.29 580H1016.48ZM1023.38 573.847H1034.51C1037.95 573.847 1040.64 573.527 1042.59 572.887C1044.55 572.247 1046.12 571.346 1047.28 570.184C1048.92 568.548 1050.18 566.354 1051.09 563.604C1052.01 560.83 1052.47 557.475 1052.47 553.539C1052.47 548.085 1051.57 543.9 1049.77 540.984C1047.99 538.043 1045.82 536.075 1043.26 535.08C1041.41 534.368 1038.44 534.013 1034.33 534.013H1023.38V573.847ZM1070.29 580V527.86H1077.19V580H1070.29ZM1102.66 580V534.013H1085.48V527.86H1126.81V534.013H1109.56V580H1102.66ZM1152.95 580V527.86H1176.07C1180.71 527.86 1184.25 528.334 1186.67 529.282C1189.08 530.207 1191.02 531.855 1192.46 534.226C1193.91 536.597 1194.63 539.217 1194.63 542.086C1194.63 545.785 1193.43 548.903 1191.04 551.44C1188.64 553.977 1184.95 555.59 1179.94 556.277C1181.77 557.155 1183.16 558.02 1184.1 558.874C1186.12 560.723 1188.03 563.035 1189.83 565.809L1198.9 580H1190.22L1183.32 569.152C1181.31 566.022 1179.65 563.628 1178.34 561.968C1177.04 560.308 1175.86 559.146 1174.82 558.482C1173.8 557.818 1172.76 557.356 1171.69 557.095C1170.91 556.929 1169.63 556.846 1167.85 556.846H1159.85V580H1152.95ZM1159.85 550.871H1174.68C1177.83 550.871 1180.3 550.551 1182.08 549.911C1183.86 549.247 1185.21 548.204 1186.13 546.781C1187.06 545.335 1187.52 543.77 1187.52 542.086C1187.52 539.62 1186.62 537.593 1184.82 536.004C1183.04 534.416 1180.22 533.621 1176.35 533.621H1159.85V550.871ZM1199.75 580L1219.78 527.86H1227.21L1248.55 580H1240.69L1234.61 564.209H1212.81L1207.08 580H1199.75ZM1214.8 558.589H1232.47L1227.03 544.149C1225.37 539.763 1224.14 536.158 1223.33 533.337C1222.67 536.68 1221.73 540 1220.52 543.295L1214.8 558.589ZM1261.92 580V534.013H1244.74V527.86H1286.07V534.013H1268.82V580H1261.92ZM1294.36 580V527.86H1301.26V580H1294.36ZM1313.39 580V527.86H1320.47L1347.85 568.797V527.86H1354.47V580H1347.39L1320 539.028V580H1313.39ZM1390.5 559.549V553.432L1412.58 553.396V572.744C1409.19 575.448 1405.69 577.487 1402.09 578.862C1398.49 580.213 1394.79 580.889 1390.99 580.889C1385.87 580.889 1381.21 579.798 1377.02 577.617C1372.84 575.412 1369.69 572.235 1367.56 568.085C1365.42 563.936 1364.35 559.3 1364.35 554.179C1364.35 549.105 1365.41 544.374 1367.52 539.988C1369.65 535.578 1372.71 532.305 1376.7 530.171C1380.68 528.037 1385.27 526.97 1390.46 526.97C1394.23 526.97 1397.63 527.587 1400.67 528.82C1403.73 530.029 1406.12 531.725 1407.85 533.906C1409.58 536.087 1410.9 538.933 1411.8 542.442L1405.58 544.149C1404.79 541.493 1403.82 539.407 1402.66 537.889C1401.5 536.372 1399.84 535.163 1397.68 534.262C1395.52 533.337 1393.13 532.875 1390.5 532.875C1387.34 532.875 1384.62 533.361 1382.32 534.333C1380.02 535.281 1378.15 536.538 1376.73 538.103C1375.33 539.668 1374.24 541.387 1373.46 543.26C1372.13 546.485 1371.47 549.982 1371.47 553.752C1371.47 558.399 1372.26 562.288 1373.85 565.418C1375.46 568.548 1377.8 570.871 1380.86 572.389C1383.92 573.906 1387.16 574.665 1390.6 574.665C1393.59 574.665 1396.51 574.096 1399.35 572.958C1402.2 571.796 1404.36 570.563 1405.83 569.259V559.549H1390.5ZM1433.28 580L1453.31 527.86H1460.74L1482.08 580H1474.22L1468.14 564.209H1446.34L1440.61 580H1433.28ZM1448.33 558.589H1466L1460.56 544.149C1458.9 539.763 1457.67 536.158 1456.86 533.337C1456.2 536.68 1455.26 540 1454.05 543.295L1448.33 558.589ZM1487.52 580V527.86H1494.6L1521.99 568.797V527.86H1528.6V580H1521.52L1494.14 539.028V580H1487.52ZM1540.23 580V527.86H1558.19C1562.25 527.86 1565.34 528.109 1567.47 528.607C1570.46 529.294 1573.01 530.539 1575.12 532.341C1577.87 534.665 1579.92 537.64 1581.27 541.268C1582.65 544.872 1583.34 548.998 1583.34 553.645C1583.34 557.605 1582.87 561.114 1581.95 564.173C1581.03 567.232 1579.84 569.769 1578.39 571.784C1576.95 573.776 1575.36 575.353 1573.63 576.514C1571.92 577.653 1569.85 578.518 1567.4 579.111C1564.98 579.704 1562.2 580 1559.05 580H1540.23ZM1547.13 573.847H1558.26C1561.7 573.847 1564.39 573.527 1566.34 572.887C1568.3 572.247 1569.87 571.346 1571.03 570.184C1572.67 568.548 1573.94 566.354 1574.84 563.604C1575.76 560.83 1576.22 557.475 1576.22 553.539C1576.22 548.085 1575.32 543.9 1573.52 540.984C1571.74 538.043 1569.57 536.075 1567.01 535.08C1565.16 534.368 1562.19 534.013 1558.08 534.013H1547.13V573.847ZM1612.93 580V527.86H1623.31L1635.66 564.778C1636.79 568.216 1637.62 570.788 1638.14 572.495C1638.74 570.599 1639.66 567.813 1640.92 564.137L1653.4 527.86H1662.69V580H1656.03V536.36L1640.88 580H1634.66L1619.58 535.613V580H1612.93ZM1668.09 580L1688.12 527.86H1695.55L1716.89 580H1709.03L1702.95 564.209H1681.14L1675.42 580H1668.09ZM1683.14 558.589H1700.81L1695.37 544.149C1693.71 539.763 1692.48 536.158 1691.67 533.337C1691.01 536.68 1690.07 540 1688.86 543.295L1683.14 558.589ZM1722.51 580V527.86H1745.63C1750.27 527.86 1753.81 528.334 1756.23 529.282C1758.64 530.207 1760.58 531.855 1762.02 534.226C1763.47 536.597 1764.19 539.217 1764.19 542.086C1764.19 545.785 1762.99 548.903 1760.6 551.44C1758.21 553.977 1754.51 555.59 1749.5 556.277C1751.33 557.155 1752.72 558.02 1753.66 558.874C1755.68 560.723 1757.59 563.035 1759.39 565.809L1768.46 580H1759.78L1752.88 569.152C1750.87 566.022 1749.21 563.628 1747.9 561.968C1746.6 560.308 1745.43 559.146 1744.38 558.482C1743.36 557.818 1742.32 557.356 1741.25 557.095C1740.47 556.929 1739.19 556.846 1737.41 556.846H1729.41V580H1722.51ZM1729.41 550.871H1744.24C1747.39 550.871 1749.86 550.551 1751.64 549.911C1753.42 549.247 1754.77 548.204 1755.69 546.781C1756.62 545.335 1757.08 543.77 1757.08 542.086C1757.08 539.62 1756.18 537.593 1754.38 536.004C1752.6 534.416 1749.78 533.621 1745.91 533.621H1729.41V550.871ZM1774.76 580V527.86H1781.66V553.716L1807.55 527.86H1816.9L1795.03 548.986L1817.86 580H1808.76L1790.19 553.61L1781.66 561.932V580H1774.76ZM1823.77 580V527.86H1861.47V534.013H1830.67V549.982H1859.51V556.099H1830.67V573.847H1862.68V580H1823.77ZM1885.47 580V534.013H1868.3V527.86H1909.62V534.013H1892.37V580H1885.47ZM1917.91 580V527.86H1924.81V580H1917.91ZM1936.94 580V527.86H1944.02L1971.4 568.797V527.86H1978.02V580H1970.94L1943.55 539.028V580H1936.94ZM2014.05 559.549V553.432L2036.13 553.396V572.744C2032.74 575.448 2029.24 577.487 2025.64 578.862C2022.04 580.213 2018.34 580.889 2014.54 580.889C2009.42 580.889 2004.76 579.798 2000.57 577.617C1996.39 575.412 1993.24 572.235 1991.11 568.085C1988.97 563.936 1987.9 559.3 1987.9 554.179C1987.9 549.105 1988.96 544.374 1991.07 539.988C1993.2 535.578 1996.26 532.305 2000.25 530.171C2004.23 528.037 2008.82 526.97 2014.01 526.97C2017.78 526.97 2021.18 527.587 2024.22 528.82C2027.28 530.029 2029.67 531.725 2031.4 533.906C2033.13 536.087 2034.45 538.933 2035.35 542.442L2029.13 544.149C2028.34 541.493 2027.37 539.407 2026.21 537.889C2025.05 536.372 2023.39 535.163 2021.23 534.262C2019.07 533.337 2016.68 532.875 2014.05 532.875C2010.89 532.875 2008.17 533.361 2005.87 534.333C2003.57 535.281 2001.7 536.538 2000.28 538.103C1998.88 539.668 1997.79 541.387 1997.01 543.26C1995.68 546.485 1995.02 549.982 1995.02 553.752C1995.02 558.399 1995.81 562.288 1997.4 565.418C1999.01 568.548 2001.35 570.871 2004.41 572.389C2007.47 573.906 2010.71 574.665 2014.15 574.665C2017.14 574.665 2020.06 574.096 2022.9 572.958C2025.75 571.796 2027.91 570.563 2029.38 569.259V559.549H2014.05ZM2067.79 580V527.86H2074.69V580H2067.79ZM2086.82 580V527.86H2093.89L2121.28 568.797V527.86H2127.89V580H2120.82L2093.43 539.028V580H2086.82ZM2139.88 580V527.86H2175.06V534.013H2146.78V550.16H2171.25V556.313H2146.78V580H2139.88ZM2181.96 554.606C2181.96 545.951 2184.28 539.182 2188.93 534.297C2193.57 529.389 2199.57 526.935 2206.92 526.935C2211.74 526.935 2216.08 528.085 2219.94 530.385C2223.81 532.685 2226.75 535.898 2228.76 540.023C2230.8 544.125 2231.82 548.785 2231.82 554.001C2231.82 559.288 2230.75 564.019 2228.62 568.192C2226.48 572.365 2223.46 575.53 2219.55 577.688C2215.64 579.822 2211.42 580.889 2206.89 580.889C2201.98 580.889 2197.59 579.704 2193.73 577.333C2189.86 574.961 2186.93 571.725 2184.94 567.623C2182.95 563.521 2181.96 559.182 2181.96 554.606ZM2189.07 554.712C2189.07 560.996 2190.75 565.951 2194.12 569.579C2197.51 573.183 2201.75 574.985 2206.85 574.985C2212.04 574.985 2216.31 573.159 2219.66 569.508C2223.02 565.856 2224.71 560.676 2224.71 553.965C2224.71 549.721 2223.98 546.022 2222.54 542.869C2221.11 539.691 2219.02 537.237 2216.24 535.506C2213.49 533.752 2210.4 532.875 2206.96 532.875C2202.07 532.875 2197.87 534.558 2194.33 537.925C2190.82 541.268 2189.07 546.864 2189.07 554.712ZM2240.85 580V527.86H2263.97C2268.62 527.86 2272.15 528.334 2274.57 529.282C2276.99 530.207 2278.92 531.855 2280.37 534.226C2281.81 536.597 2282.54 539.217 2282.54 542.086C2282.54 545.785 2281.34 548.903 2278.94 551.44C2276.55 553.977 2272.85 555.59 2267.85 556.277C2269.67 557.155 2271.06 558.02 2272.01 558.874C2274.02 560.723 2275.93 563.035 2277.74 565.809L2286.81 580H2278.13L2271.23 569.152C2269.21 566.022 2267.55 563.628 2266.25 561.968C2264.94 560.308 2263.77 559.146 2262.73 558.482C2261.71 557.818 2260.66 557.356 2259.6 557.095C2258.81 556.929 2257.53 556.846 2255.76 556.846H2247.75V580H2240.85ZM2247.75 550.871H2262.58C2265.74 550.871 2268.2 550.551 2269.98 549.911C2271.76 549.247 2273.11 548.204 2274.04 546.781C2274.96 545.335 2275.42 543.77 2275.42 542.086C2275.42 539.62 2274.52 537.593 2272.72 536.004C2270.94 534.416 2268.12 533.621 2264.26 533.621H2247.75V550.871ZM2293.17 580V527.86H2303.56L2315.9 564.778C2317.04 568.216 2317.87 570.788 2318.39 572.495C2318.98 570.599 2319.91 567.813 2321.16 564.137L2333.65 527.86H2342.93V580H2336.28V536.36L2321.13 580H2314.9L2299.82 535.613V580H2293.17ZM2348.33 580L2368.36 527.86H2375.79L2397.13 580H2389.27L2383.19 564.209H2361.39L2355.66 580H2348.33ZM2363.38 558.589H2381.06L2375.61 544.149C2373.95 539.763 2372.72 536.158 2371.92 533.337C2371.25 536.68 2370.31 540 2369.11 543.295L2363.38 558.589ZM2410.51 580V534.013H2393.33V527.86H2434.65V534.013H2417.4V580H2410.51ZM2442.94 580V527.86H2449.84V580H2442.94ZM2459.94 554.606C2459.94 545.951 2462.27 539.182 2466.91 534.297C2471.56 529.389 2477.56 526.935 2484.91 526.935C2489.72 526.935 2494.06 528.085 2497.93 530.385C2501.79 532.685 2504.73 535.898 2506.75 540.023C2508.79 544.125 2509.81 548.785 2509.81 554.001C2509.81 559.288 2508.74 564.019 2506.61 568.192C2504.47 572.365 2501.45 575.53 2497.54 577.688C2493.62 579.822 2489.4 580.889 2484.87 580.889C2479.97 580.889 2475.58 579.704 2471.71 577.333C2467.85 574.961 2464.92 571.725 2462.93 567.623C2460.94 563.521 2459.94 559.182 2459.94 554.606ZM2467.06 554.712C2467.06 560.996 2468.74 565.951 2472.11 569.579C2475.5 573.183 2479.74 574.985 2484.84 574.985C2490.03 574.985 2494.3 573.159 2497.64 569.508C2501.01 565.856 2502.69 560.676 2502.69 553.965C2502.69 549.721 2501.97 546.022 2500.52 542.869C2499.1 539.691 2497 537.237 2494.23 535.506C2491.48 533.752 2488.38 532.875 2484.95 532.875C2480.06 532.875 2475.85 534.558 2472.32 537.925C2468.81 541.268 2467.06 546.864 2467.06 554.712ZM2518.66 580V527.86H2525.74L2553.13 568.797V527.86H2559.74V580H2552.66L2525.28 539.028V580H2518.66Z" fill="#1A3D6C"/>
<path d="M2163.27 679.239L2169.78 678.67C2170.09 681.278 2170.8 683.424 2171.91 685.107C2173.05 686.767 2174.81 688.119 2177.18 689.162C2179.55 690.182 2182.22 690.691 2185.18 690.691C2187.81 690.691 2190.14 690.3 2192.15 689.518C2194.17 688.735 2195.66 687.668 2196.63 686.317C2197.63 684.941 2198.13 683.448 2198.13 681.835C2198.13 680.199 2197.65 678.777 2196.7 677.567C2195.76 676.334 2194.19 675.303 2192.01 674.473C2190.61 673.928 2187.52 673.086 2182.73 671.948C2177.94 670.786 2174.58 669.695 2172.66 668.676C2170.17 667.372 2168.31 665.759 2167.08 663.839C2165.87 661.894 2165.26 659.725 2165.26 657.33C2165.26 654.698 2166.01 652.244 2167.5 649.968C2169 647.668 2171.18 645.925 2174.05 644.74C2176.92 643.554 2180.11 642.961 2183.62 642.961C2187.48 642.961 2190.88 643.59 2193.82 644.846C2196.79 646.079 2199.06 647.905 2200.65 650.323C2202.24 652.742 2203.09 655.481 2203.21 658.539L2196.6 659.037C2196.24 655.741 2195.03 653.252 2192.97 651.568C2190.93 649.885 2187.91 649.043 2183.9 649.043C2179.73 649.043 2176.68 649.814 2174.76 651.355C2172.86 652.872 2171.91 654.71 2171.91 656.868C2171.91 658.741 2172.59 660.282 2173.94 661.491C2175.27 662.701 2178.73 663.945 2184.33 665.226C2189.95 666.482 2193.8 667.585 2195.89 668.533C2198.92 669.932 2201.16 671.711 2202.61 673.868C2204.05 676.002 2204.78 678.468 2204.78 681.266C2204.78 684.04 2203.98 686.66 2202.4 689.126C2200.81 691.569 2198.52 693.477 2195.53 694.853C2192.57 696.204 2189.22 696.88 2185.5 696.88C2180.78 696.88 2176.82 696.192 2173.62 694.817C2170.44 693.442 2167.94 691.379 2166.12 688.628C2164.32 685.854 2163.37 682.724 2163.27 679.239ZM2215.38 695.991V643.85H2222.28V695.991H2215.38ZM2234.4 695.991V643.85H2241.48L2268.87 684.787V643.85H2275.48V695.991H2268.41L2241.02 655.018V695.991H2234.4ZM2324.32 677.71L2331.22 679.452C2329.77 685.119 2327.16 689.447 2323.39 692.434C2319.65 695.398 2315.06 696.88 2309.63 696.88C2304.01 696.88 2299.43 695.742 2295.9 693.466C2292.39 691.166 2289.71 687.846 2287.86 683.507C2286.04 679.168 2285.12 674.509 2285.12 669.529C2285.12 664.1 2286.15 659.369 2288.22 655.338C2290.3 651.284 2293.26 648.213 2297.07 646.127C2300.91 644.016 2305.13 642.961 2309.73 642.961C2314.95 642.961 2319.34 644.289 2322.89 646.945C2326.45 649.6 2328.93 653.335 2330.33 658.148L2323.53 659.749C2322.33 655.955 2320.57 653.192 2318.27 651.462C2315.97 649.731 2313.08 648.865 2309.59 648.865C2305.59 648.865 2302.23 649.826 2299.53 651.746C2296.85 653.667 2294.96 656.251 2293.87 659.5C2292.78 662.724 2292.24 666.056 2292.24 669.494C2292.24 673.928 2292.88 677.804 2294.16 681.124C2295.46 684.42 2297.48 686.886 2300.2 688.522C2302.93 690.158 2305.88 690.976 2309.06 690.976C2312.92 690.976 2316.2 689.861 2318.88 687.633C2321.55 685.404 2323.37 682.096 2324.32 677.71ZM2339.89 695.991V643.85H2377.6V650.003H2346.79V665.973H2375.64V672.09H2346.79V689.838H2378.8V695.991H2339.89ZM2430.13 695.991H2423.72V655.196C2422.18 656.666 2420.16 658.136 2417.64 659.606C2415.15 661.076 2412.91 662.179 2410.92 662.914V656.725C2414.5 655.042 2417.63 653.003 2420.31 650.608C2422.99 648.213 2424.89 645.89 2426 643.637H2430.13V695.991ZM2447.52 683.934L2453.67 683.365C2454.19 686.257 2455.19 688.356 2456.66 689.66C2458.13 690.964 2460.01 691.616 2462.31 691.616C2464.28 691.616 2466 691.166 2467.47 690.265C2468.97 689.364 2470.19 688.166 2471.13 686.672C2472.08 685.155 2472.88 683.116 2473.52 680.555C2474.16 677.994 2474.48 675.386 2474.48 672.73C2474.48 672.446 2474.47 672.019 2474.44 671.45C2473.16 673.489 2471.41 675.149 2469.18 676.429C2466.97 677.686 2464.58 678.314 2461.99 678.314C2457.68 678.314 2454.03 676.749 2451.04 673.619C2448.05 670.49 2446.56 666.364 2446.56 661.242C2446.56 655.955 2448.11 651.699 2451.22 648.474C2454.35 645.249 2458.26 643.637 2462.95 643.637C2466.35 643.637 2469.44 644.55 2472.24 646.376C2475.06 648.201 2477.19 650.81 2478.64 654.2C2480.11 657.567 2480.84 662.452 2480.84 668.854C2480.84 675.516 2480.12 680.828 2478.67 684.787C2477.23 688.723 2475.07 691.723 2472.2 693.786C2469.36 695.848 2466.01 696.88 2462.17 696.88C2458.09 696.88 2454.76 695.754 2452.18 693.501C2449.59 691.225 2448.04 688.036 2447.52 683.934ZM2473.73 660.922C2473.73 657.247 2472.75 654.331 2470.78 652.173C2468.83 650.015 2466.49 648.936 2463.74 648.936C2460.89 648.936 2458.41 650.098 2456.3 652.422C2454.19 654.746 2453.14 657.757 2453.14 661.456C2453.14 664.775 2454.13 667.478 2456.13 669.565C2458.14 671.628 2460.62 672.659 2463.56 672.659C2466.52 672.659 2468.95 671.628 2470.85 669.565C2472.77 667.478 2473.73 664.597 2473.73 660.922ZM2487.1 670.276C2487.1 664.111 2487.73 659.156 2488.99 655.409C2490.27 651.639 2492.15 648.735 2494.64 646.696C2497.16 644.657 2500.31 643.637 2504.1 643.637C2506.9 643.637 2509.36 644.206 2511.47 645.344C2513.58 646.459 2515.32 648.083 2516.7 650.217C2518.07 652.327 2519.15 654.912 2519.93 657.97C2520.71 661.005 2521.11 665.107 2521.11 670.276C2521.11 676.394 2520.48 681.337 2519.22 685.107C2517.96 688.854 2516.08 691.758 2513.57 693.821C2511.08 695.86 2507.92 696.88 2504.1 696.88C2499.08 696.88 2495.13 695.078 2492.26 691.474C2488.82 687.135 2487.1 680.069 2487.1 670.276ZM2493.68 670.276C2493.68 678.836 2494.68 684.538 2496.67 687.384C2498.69 690.205 2501.16 691.616 2504.1 691.616C2507.05 691.616 2509.51 690.193 2511.5 687.348C2513.52 684.503 2514.53 678.812 2514.53 670.276C2514.53 661.693 2513.52 655.99 2511.5 653.169C2509.51 650.347 2507.02 648.936 2504.03 648.936C2501.09 648.936 2498.75 650.181 2496.99 652.671C2494.79 655.848 2493.68 661.717 2493.68 670.276ZM2551.76 695.991H2545.36V655.196C2543.82 656.666 2541.79 658.136 2539.28 659.606C2536.79 661.076 2534.55 662.179 2532.56 662.914V656.725C2536.14 655.042 2539.27 653.003 2541.95 650.608C2544.63 648.213 2546.52 645.89 2547.64 643.637H2551.76V695.991Z" fill="#1A3D6C"/>
</g>
<defs>
<linearGradient id="paint0_linear_823_20131" x1="0.294" y1="360.965" x2="730.533" y2="360.965" gradientUnits="userSpaceOnUse">
<stop stop-color="#0062AF"/>
<stop offset="1" stop-color="#1C3C6C"/>
</linearGradient>
<linearGradient id="paint1_linear_823_20131" x1="853" y1="296.673" x2="2565.66" y2="296.673" gradientUnits="userSpaceOnUse">
<stop stop-color="#0062AF"/>
<stop offset="1" stop-color="#1C3C6C"/>
</linearGradient>
<clipPath id="clip0_823_20131">
<rect width="2566" height="722" fill="white"/>
</clipPath>
</defs>
</svg>
