<svg width="994" height="1334" viewBox="0 0 994 1334" fill="none" xmlns="http://www.w3.org/2000/svg">
<g clip-path="url(#clip0_826_18445)">
<path fill-rule="evenodd" clip-rule="evenodd" d="M206.016 638.791V17H788.017V638.791C738.037 749.707 626.477 826.998 497.016 826.998C367.546 826.998 255.996 749.707 206.016 638.791ZM788.017 910.836V1316.41C788.017 1316.41 509.016 1166 500.016 1166C491.016 1166 206.016 1316.41 206.016 1316.41V910.836C287.836 970.066 388.376 1005 497.016 1005C605.657 1005 706.197 970.066 788.017 910.836ZM215.786 896.916C212.496 894.536 209.236 892.116 206.016 889.646C91.1657 801.914 17.0156 663.548 17.0156 507.999C17.0156 360.266 83.8957 228.032 189.016 139.952V373.598C171.006 414.764 161.016 460.224 161.016 507.999C161.016 569.174 177.396 626.552 206.016 675.982C264.146 776.391 372.746 843.998 497.016 843.998C621.287 843.998 729.887 776.391 788.017 675.982C816.627 626.552 833.017 569.174 833.017 507.999C833.017 460.224 823.027 414.764 805.017 373.598V139.952C910.127 228.032 977.017 360.266 977.017 507.999C977.017 663.548 902.867 801.914 788.017 889.646C784.787 892.116 781.537 894.536 778.247 896.916C778.177 896.966 778.117 897.016 778.047 897.066C758.017 911.566 736.827 924.556 714.647 935.866C649.306 969.196 575.336 987.996 497.016 987.996H496.996C418.666 987.996 344.716 969.196 279.386 935.866C257.206 924.556 236.016 911.566 215.986 897.066C215.916 897.016 215.856 896.966 215.786 896.916Z" fill="white"/>
<path d="M103.257 674.958L143.35 658.385L149.891 674.208L157.396 671.106L141.105 631.695L133.6 634.798L139.858 649.938L99.7656 666.511L103.257 674.958Z" fill="url(#paint0_linear_826_18445)"/>
<path fill-rule="evenodd" clip-rule="evenodd" d="M142.222 706.129L130.632 728.646L135.888 737.79L148.419 713.029C150.679 714.893 153.347 715.982 156.42 716.297C159.494 716.612 162.351 716.01 164.993 714.492C173.771 709.446 174.902 701.254 168.384 689.916C167.333 688.087 165.868 685.726 163.988 682.832C162.129 679.927 161.071 678.251 160.814 677.804L116.161 703.47L120.891 711.699L139.545 700.977C140.661 703.201 141.554 704.919 142.222 706.129ZM146.251 697.123L158.656 689.993C159.315 690.857 159.89 691.716 160.381 692.57C162.413 696.105 163.465 698.947 163.537 701.095C163.61 703.244 162.549 704.948 160.354 706.21C157.651 707.763 155.389 708.036 153.567 707.029C151.756 706.043 149.899 703.893 147.995 700.581C147.551 699.809 146.97 698.656 146.251 697.123Z" fill="url(#paint1_linear_826_18445)"/>
<path fill-rule="evenodd" clip-rule="evenodd" d="M160.825 772.427L166.97 763.186L156.457 749.011L145.934 752.351L139.882 744.19L194.045 729.581L196.433 732.8L166.835 780.532L160.825 772.427ZM182.589 740.573L163.626 746.933L170.998 756.872L182.589 740.573Z" fill="url(#paint2_linear_826_18445)"/>
<path d="M204.857 774.955L198.685 815.561L201.267 818.247L238.904 782.067L232.813 775.731L210.409 797.268L215.953 758.192L212.908 755.024L175.752 790.742L181.843 797.078L204.857 774.955Z" fill="url(#paint3_linear_826_18445)"/>
<path d="M215.713 826.529L223.52 822.34C224.703 826.587 226.644 829.818 229.343 832.034C233.491 835.44 236.755 835.694 239.135 832.795C240.25 831.437 240.825 829.74 240.858 827.705C240.891 825.67 240.001 822.635 238.189 818.6C236.41 814.562 235.388 811.615 235.122 809.759C234.89 807.901 235.041 806.054 235.577 804.219C236.131 802.4 237.085 800.666 238.438 799.017C240.966 795.938 244.186 794.306 248.098 794.121C252.028 793.952 255.759 795.317 259.292 798.217C263.893 801.995 266.565 805.629 267.307 809.119L260.164 813.443C259.14 809.631 257.251 806.594 254.497 804.333C252.867 802.995 251.242 802.388 249.623 802.514C248.036 802.637 246.678 803.387 245.547 804.763C243.673 807.046 244.252 811.493 247.283 818.106C248.875 821.597 249.806 824.378 250.076 826.45C250.361 828.503 250.21 830.516 249.621 832.489C249.047 834.444 248.024 836.318 246.551 838.111C243.904 841.336 240.448 842.941 236.184 842.927C231.937 842.928 227.677 841.174 223.402 837.664C219.688 834.615 217.126 830.903 215.713 826.529Z" fill="url(#paint4_linear_826_18445)"/>
<path fill-rule="evenodd" clip-rule="evenodd" d="M258.738 863.108L269.022 847.192C270.39 848.271 271.507 849.091 272.373 849.651C284.066 857.206 293.118 856.023 299.529 846.102C302.404 841.653 302.931 837.361 301.11 833.226C299.321 829.085 295.011 824.807 288.18 820.393C287.314 819.834 284.252 818.009 278.994 814.918L251.061 858.147L258.738 863.108ZM273.43 840.371L282.378 826.523C283.19 826.907 283.999 827.361 284.806 827.882C292.031 832.55 294.193 837.129 291.293 841.617C289.589 844.255 287.548 845.643 285.17 845.781C282.806 845.899 279.871 844.826 276.367 842.562C275.619 842.079 274.64 841.349 273.43 840.371Z" fill="url(#paint5_linear_826_18445)"/>
<path fill-rule="evenodd" clip-rule="evenodd" d="M303.088 860.198C306.269 853.588 310.763 848.871 316.57 846.047C322.407 843.212 328.357 843.253 334.418 846.17C341.092 849.381 345.197 853.905 346.732 859.742C348.267 865.579 347.235 872.235 343.638 879.711C340.04 887.188 335.336 892.233 329.526 894.847C323.738 897.472 317.454 897.153 310.674 893.891C304.444 890.892 300.707 886.415 299.464 880.459C298.242 874.513 299.45 867.759 303.088 860.198ZM311.641 864.314C309.03 869.742 307.926 874.387 308.33 878.249C308.735 882.111 310.69 884.886 314.196 886.573C318.314 888.554 322.151 888.606 325.708 886.729C329.286 884.861 332.411 881.15 335.084 875.595C340.318 864.719 338.922 857.35 330.897 853.488C327.222 851.719 323.691 851.841 320.304 853.853C316.928 855.843 314.04 859.33 311.641 864.314Z" fill="url(#paint6_linear_826_18445)"/>
<path fill-rule="evenodd" clip-rule="evenodd" d="M368.387 893.557L374.962 918.013L385.003 921.241L377.614 894.492C380.54 894.35 383.246 893.361 385.732 891.526C388.217 889.691 389.926 887.323 390.859 884.423C393.958 874.784 389.283 867.963 376.832 863.959C374.824 863.314 372.152 862.553 368.814 861.677C365.484 860.778 363.574 860.25 363.083 860.092L347.317 909.124L356.354 912.03L362.94 891.547C365.262 892.441 367.078 893.111 368.387 893.557ZM365.307 884.184L369.687 870.562C370.757 870.758 371.76 871.007 372.697 871.308C376.579 872.556 379.27 873.951 380.769 875.491C382.268 877.032 382.63 879.007 381.855 881.417C380.901 884.384 379.411 886.109 377.385 886.59C375.381 887.078 372.561 886.738 368.924 885.568C368.076 885.296 366.871 884.834 365.307 884.184Z" fill="url(#paint7_linear_826_18445)"/>
<path d="M423.71 885.258L415.004 927.758L406.049 925.924L414.755 883.423L398.706 880.136L400.335 872.18L442.112 880.738L440.483 888.694L423.71 885.258Z" fill="url(#paint8_linear_826_18445)"/>
<path fill-rule="evenodd" clip-rule="evenodd" d="M466.241 924.138L469.008 934.886L479.054 935.831L463.329 881.914L459.339 881.538L434.007 931.592L444.122 932.544L448.67 922.484L466.241 924.138ZM451.916 915.763L459.858 897.406L464.237 916.922L451.916 915.763Z" fill="url(#paint9_linear_826_18445)"/>
<path d="M506.348 892.135L506.915 935.514L497.775 935.634L497.208 892.255L480.827 892.469L480.72 884.349L523.361 883.791L523.467 891.911L506.348 892.135Z" fill="url(#paint10_linear_826_18445)"/>
<path d="M532.895 882.435L538.368 933.648L547.457 932.676L541.984 881.464L532.895 882.435Z" fill="url(#paint11_linear_826_18445)"/>
<path fill-rule="evenodd" clip-rule="evenodd" d="M558.493 905.377C556.973 898.2 557.648 891.72 560.52 885.937C563.41 880.126 568.146 876.524 574.726 875.13C581.972 873.595 587.985 874.67 592.766 878.353C597.547 882.036 600.797 887.936 602.516 896.052C604.235 904.169 603.594 911.037 600.591 916.656C597.612 922.271 592.442 925.857 585.082 927.416C578.318 928.849 572.624 927.587 568.001 923.631C563.401 919.67 560.231 913.585 558.493 905.377ZM567.779 903.41C569.027 909.303 570.991 913.654 573.67 916.465C576.35 919.275 579.593 920.277 583.399 919.471C587.87 918.524 590.94 916.221 592.608 912.561C594.3 908.897 594.507 904.05 593.23 898.019C590.729 886.211 585.122 881.229 576.409 883.075C572.419 883.92 569.698 886.173 568.246 889.835C566.788 893.474 566.633 897.999 567.779 903.41Z" fill="url(#paint12_linear_826_18445)"/>
<path d="M621.068 883.997L655.598 906.237L659.106 904.979L641.483 855.836L633.21 858.803L643.7 888.057L610.31 867.015L606.173 868.498L623.57 917.013L631.843 914.046L621.068 883.997Z" fill="url(#paint13_linear_826_18445)"/>
<path d="M743.754 858.237L736.218 862.894L717.071 842.078L723.201 871.724L720.419 873.443L696.645 854.701L706.521 881.247L699.014 885.886L680.742 836.591L684.869 834.04L712.591 857.699L703.621 822.452L707.718 819.92L743.754 858.237Z" fill="url(#paint14_linear_826_18445)"/>
<path d="M741.869 819.604L734.238 810.267L752.612 795.25L747.473 788.962L722.021 809.764L754.614 849.643L779.767 829.086L774.628 822.798L756.553 837.57L746.786 825.62L759.961 814.852L755.044 808.836L741.869 819.604Z" fill="url(#paint15_linear_826_18445)"/>
<path d="M825.289 783.208L819.19 789.634L795.367 774.389L808.855 801.491L806.604 803.863L778.836 791.804L795.156 814.954L789.081 821.354L758.84 778.35L762.18 774.831L795.02 790.637L777.356 758.844L780.671 755.35L825.289 783.208Z" fill="url(#paint16_linear_826_18445)"/>
<path fill-rule="evenodd" clip-rule="evenodd" d="M833.595 772.228L842.823 759.465C846.105 754.925 847.671 750.418 847.522 745.943C847.355 741.455 845.372 737.838 841.573 735.091C835.932 731.013 830.335 730.914 824.781 734.795C825.39 729.913 824.041 726.278 820.737 723.888C817.299 721.403 813.773 720.719 810.159 721.837C806.54 722.923 803.165 725.631 800.034 729.961C798.4 732.221 795.684 736.259 791.885 742.073L833.595 772.228ZM813.167 746.18L803.167 738.95C804.28 737.21 805.255 735.76 806.093 734.602C809.265 730.214 812.456 729.181 815.666 731.502C819.294 734.124 819.364 737.848 815.876 742.672C814.97 743.926 814.066 745.095 813.167 746.18ZM832.739 760.33L818.95 750.361C820.17 748.553 821.041 747.289 821.563 746.567C824.062 743.11 826.354 741.08 828.439 740.476C830.524 739.872 832.754 740.429 835.128 742.145C837.73 744.026 839.049 746.122 839.085 748.433C839.135 750.725 837.965 753.523 835.575 756.828C834.902 757.758 833.957 758.926 832.739 760.33Z" fill="url(#paint17_linear_826_18445)"/>
<path d="M829.215 701.219L839.744 707.097L848.038 692.24L854.822 696.028L846.527 710.885L860.003 718.408L871.383 698.026L878.473 701.985L862.638 730.348L817.668 705.241L833.692 676.54L840.783 680.499L829.215 701.219Z" fill="url(#paint18_linear_826_18445)"/>
<path fill-rule="evenodd" clip-rule="evenodd" d="M871.987 664.819L896.866 660.088L900.836 650.316L873.609 655.688C873.686 652.759 872.902 649.987 871.258 647.371C869.614 644.755 867.38 642.874 864.557 641.727C855.176 637.917 848.025 642.07 843.103 654.187C842.31 656.141 841.351 658.749 840.228 662.012C839.084 665.266 838.414 667.131 838.22 667.609L885.938 686.992L889.51 678.198L869.576 670.1C870.641 667.852 871.445 666.091 871.987 664.819ZM862.41 667.19L849.154 661.805C849.429 660.753 849.752 659.771 850.123 658.859C851.657 655.081 853.249 652.502 854.897 651.122C856.545 649.743 858.542 649.529 860.887 650.482C863.775 651.655 865.383 653.27 865.712 655.326C866.049 657.36 865.499 660.147 864.061 663.686C863.726 664.511 863.176 665.679 862.41 667.19Z" fill="url(#paint19_linear_826_18445)"/>
<path d="M384.05 598.559L364 629.175H378.207L391.254 608.885L404.261 629.175H418.548L398.498 598.999L416.747 570.505H403.02L391.494 589.355L379.728 570.505H365.881L384.05 598.559Z" fill="url(#paint20_linear_826_18445)"/>
<path d="M461.53 598.559L441.48 629.175H455.687L468.734 608.885L481.74 629.175H496.028L475.977 598.999L494.227 570.505H480.5L468.974 589.355L457.208 570.505H443.361L461.53 598.559Z" fill="url(#paint21_linear_826_18445)"/>
<path d="M518.959 629.175L539.01 598.559L520.84 570.505H534.687L546.453 589.355L557.979 570.505H571.706L553.457 598.999L573.507 629.175H559.22L546.213 608.885L533.167 629.175H518.959Z" fill="url(#paint22_linear_826_18445)"/>
<path d="M616.489 598.559L596.439 629.175H610.646L623.693 608.885L636.7 629.175H650.987L630.937 598.999L649.186 570.505H635.459L623.933 589.355L612.167 570.505H598.32L616.489 598.559Z" fill="url(#paint23_linear_826_18445)"/>
<path d="M433.898 136.392H453.734L453.836 136.496V288.32L453.734 288.424H433.898L433.796 288.32V136.496L433.898 136.392Z" fill="url(#paint24_linear_826_18445)"/>
<path fill-rule="evenodd" clip-rule="evenodd" d="M409.996 219.884C407.92 214.348 404.49 208.844 399.716 203.372C397.288 200.952 395.458 199.254 394.212 198.284C384.864 191.016 374.582 187.382 363.366 187.382H363.262C353.568 187.382 344.948 190.394 337.406 196.416C335.604 197.87 334.186 199.29 333.15 200.674H333.042V136.496L332.94 136.392H313.104L313 136.496V288.424H333.042V278.04C334.218 279.286 335.362 280.428 336.472 281.466C338.55 283.198 340.378 284.548 341.976 285.516C344.052 286.762 346.404 287.836 349.038 288.736C354.298 290.19 358.764 290.918 362.432 290.918H363.782C372.714 290.918 381.264 288.392 389.432 283.336C391.094 282.368 392.896 281.122 394.832 279.598C396.494 278.282 398.674 276.102 401.376 273.056C403.868 269.94 405.806 267.068 407.192 264.436C411.48 256.406 413.628 247.994 413.628 239.2C413.628 232.554 412.42 226.116 409.996 219.884ZM393.484 239.408C393.484 244.116 392.48 248.686 390.474 253.116C389.292 255.678 387.528 258.344 385.176 261.112C378.946 267.622 371.604 270.874 363.16 270.874C359.006 270.874 354.814 269.906 350.596 267.966C349 267.206 347.096 265.992 344.884 264.332L343.012 262.67C341.35 261.01 340.072 259.556 339.17 258.31C335.086 252.564 333.042 246.298 333.042 239.512V238.994C333.042 231.516 335.362 224.836 340 218.952C340.486 218.26 341.696 216.978 343.638 215.108C345.714 213.24 347.79 211.786 349.868 210.746C354.502 208.532 358.834 207.424 362.848 207.424C371.846 207.424 379.464 210.884 385.694 217.808C390.89 224.11 393.484 231.17 393.484 238.994V239.408Z" fill="url(#paint25_linear_826_18445)"/>
<path d="M516.136 288.426H517.074C521.504 288.426 525.242 288.08 528.29 287.388C533.964 285.726 538.566 283.58 542.1 280.948H542.304V287.596L542.516 287.906H562.038L562.244 287.596V189.252L562.038 188.94H542.516L542.304 189.252V249.068C542.304 256.544 539.986 261.668 535.352 264.438C531.818 267.068 525.83 268.384 517.382 268.384H515.72C511.086 268.384 507.278 267.726 504.3 266.41C497.238 263.71 493.704 258.102 493.704 249.588V189.252L493.396 188.94H473.976L473.664 189.252V249.38C473.664 256.58 475.012 262.846 477.714 268.176C485.466 281.676 498.274 288.426 516.136 288.426Z" fill="url(#paint26_linear_826_18445)"/>
<path fill-rule="evenodd" clip-rule="evenodd" d="M669.755 211.162C668.023 207.908 664.873 204.032 660.303 199.532C650.961 191.432 641.229 187.382 631.123 187.382H628.113C618.905 187.382 609.729 190.878 600.589 197.87C588.198 209.084 582.005 222.794 582.005 238.994V239.408C582.005 251.178 585.533 262.014 592.595 271.914C602.839 284.584 615.097 290.918 629.359 290.918H629.775C643.617 290.918 655.631 284.93 665.807 272.952C669.199 268.106 671.379 264.47 672.349 262.048C672.209 261.91 666.189 259.14 654.283 253.74C654.073 253.81 653.381 254.986 652.207 257.272C646.109 266.34 638.563 270.874 629.565 270.874C622.433 270.874 616.067 267.864 610.457 261.84C606.789 258.172 604.155 252.632 602.565 245.224H676.919C677.195 245.224 677.335 244.256 677.335 242.316V239.2C677.335 229.44 674.805 220.092 669.755 211.162ZM654.801 226.324H604.435L606.097 222.482C612.189 212.444 619.973 207.424 629.463 207.424C635.693 207.424 641.439 209.674 646.699 214.174C650.923 218.674 653.619 222.69 654.801 226.22V226.324Z" fill="url(#paint27_linear_826_18445)"/>
<path fill-rule="evenodd" clip-rule="evenodd" d="M359.772 362.955C372.79 362.955 384.108 368.389 393.732 379.259C401.83 389.299 405.88 400.375 405.88 412.489V413.943C405.88 427.721 400.756 440.009 390.51 450.809C381.098 459.257 371.058 463.479 360.398 463.479H359.152C345.578 463.479 333.812 457.423 323.844 445.305L321.658 441.879H321.556V462.441L321.242 462.649H313.664L313.35 462.441V310.927L313.664 310.615H321.242L321.556 310.927V384.555H321.658C327.058 375.693 335.092 369.257 345.752 365.239C350.32 363.717 354.998 362.955 359.772 362.955ZM359.772 455.275C371.198 455.275 380.994 450.117 389.162 439.801C394.838 431.841 397.674 422.945 397.674 413.113C397.674 399.475 392.346 388.053 381.686 378.843C374.694 373.721 367.318 371.157 359.568 371.157C348.212 371.157 338.446 376.283 330.28 386.529C324.464 394.489 321.556 403.455 321.556 413.425C321.556 424.225 325.122 433.917 332.254 442.501C340.076 451.017 349.246 455.275 359.772 455.275Z" fill="url(#paint28_linear_826_18445)"/>
<path fill-rule="evenodd" clip-rule="evenodd" d="M499.558 381.853C489.864 369.945 478.272 363.993 464.768 363.993H464.25C452.69 363.993 442.338 368.493 433.198 377.493C423.784 387.669 419.076 399.543 419.076 413.111V413.527C419.076 424.743 422.398 435.023 429.046 444.371C438.874 456.555 450.612 462.647 464.25 462.647C476.092 462.647 486.476 458.251 495.404 449.459C505.03 439.073 509.84 427.269 509.84 414.047V412.593C509.84 401.723 506.416 391.477 499.558 381.853ZM491.666 441.565C483.914 450.289 474.846 454.651 464.46 454.651C456.844 454.651 449.642 452.123 442.86 447.069C432.336 438.069 427.076 426.785 427.076 413.215C427.076 404.491 429.568 396.219 434.552 388.395C442.79 377.457 452.722 371.989 464.354 371.989C474.598 371.989 483.57 376.177 491.25 384.553C498.312 392.931 501.846 402.485 501.846 413.215C501.846 423.947 498.452 433.397 491.666 441.565Z" fill="url(#paint29_linear_826_18445)"/>
<path fill-rule="evenodd" clip-rule="evenodd" d="M569.71 363.993C583.208 363.993 594.806 369.945 604.494 381.853C611.352 391.477 614.776 401.723 614.776 412.593V414.047C614.776 427.269 609.964 439.073 600.34 449.459C591.412 458.251 581.028 462.647 569.186 462.647C555.548 462.647 543.816 456.555 533.986 444.371C527.34 435.023 524.016 424.743 524.016 413.527V413.111C524.016 399.543 528.72 387.669 538.14 377.493C547.278 368.493 557.626 363.993 569.186 363.993H569.71ZM569.396 454.651C579.782 454.651 588.85 450.289 596.602 441.565C603.388 433.397 606.782 423.947 606.782 413.215C606.782 402.485 603.248 392.931 596.186 384.553C588.504 376.177 579.538 371.989 569.294 371.989C557.664 371.989 547.726 377.457 539.488 388.395C534.504 396.219 532.012 404.491 532.012 413.215C532.012 426.785 537.272 438.069 547.796 447.069C554.582 452.123 561.78 454.651 569.396 454.651Z" fill="url(#paint30_linear_826_18445)"/>
<path d="M628.968 310.615H636.548L636.86 310.927V413.321L688.99 363.889H700.83V364.097L656.902 405.843V405.947L701.45 462.337V462.647H690.964C690.478 462.303 685.494 455.967 676.01 443.643C660.78 424.399 652.434 413.701 650.984 411.555H650.774L636.86 424.847V462.337L636.548 462.647H628.968L628.656 462.337V310.927L628.968 310.615Z" fill="url(#paint31_linear_826_18445)"/>
<path fill-rule="evenodd" clip-rule="evenodd" d="M499.967 1184.3C494.577 1186.76 484.446 1191.46 473.546 1196.87C396.086 1235.32 213.946 1331.45 213.946 1331.45C208.676 1334.23 202.336 1334.05 197.236 1330.97C192.136 1327.89 189.016 1322.37 189.016 1316.41V897.966C73.9157 806.911 0.015625 666.016 0.015625 507.999C0.015625 355.037 69.2558 218.12 178.096 126.922C181.696 123.908 185.336 120.945 189.016 118.032V17C189.016 7.61098 196.626 0 206.016 0H788.017C797.407 0 805.017 7.61098 805.017 17V118.032C808.697 120.945 812.337 123.908 815.937 126.922C924.767 218.12 994.017 355.037 994.017 507.999C994.017 666.016 920.117 806.911 805.017 897.966V1316.41C805.017 1322.39 801.867 1327.94 796.727 1331.01C791.587 1334.08 785.217 1334.21 779.947 1331.37C779.947 1331.37 601.657 1235.26 525.746 1196.81C515.126 1191.43 505.247 1186.76 499.967 1184.3ZM206.016 889.646L206.016 889.656C209.236 892.116 212.496 894.536 215.786 896.916C215.856 896.966 215.916 897.016 215.986 897.066C236.016 911.566 257.206 924.556 279.386 935.866C344.716 969.196 418.666 987.986 496.996 987.996H497.016C575.336 987.996 649.306 969.196 714.646 935.866C736.826 924.556 758.016 911.566 778.046 897.066C778.06 897.056 778.073 897.047 778.086 897.037L778.109 897.02L778.17 896.973C778.195 896.954 778.22 896.935 778.247 896.916C781.537 894.536 784.797 892.116 788.017 889.656V910.836C706.196 970.066 605.656 1005 497.016 1005C388.376 1005 287.836 970.066 206.016 910.836L206.016 1316.41C206.016 1316.41 491.016 1166 500.016 1166C509.016 1166 788.017 1316.41 788.017 1316.41V889.646C902.867 801.914 977.017 663.548 977.017 507.999C977.017 360.266 910.127 228.032 805.017 139.952L805.017 373.597C823.027 414.767 833.017 460.227 833.017 507.997C833.017 569.177 816.627 626.557 788.017 675.977C729.887 776.396 621.286 843.996 497.016 843.996C372.746 843.996 264.146 776.396 206.016 675.977C177.406 626.557 161.016 569.177 161.016 507.997C161.016 460.227 171.006 414.767 189.016 373.597V139.953C83.8955 228.033 17.0157 360.266 17.0157 507.999C17.0157 663.548 91.1658 801.914 206.016 889.646ZM788.017 17L788.017 638.787C738.036 749.706 626.486 826.996 497.016 826.996C367.546 826.996 255.996 749.706 206.016 638.787L206.016 17H788.017Z" fill="url(#paint32_linear_826_18445)"/>
</g>
<defs>
<linearGradient id="paint0_linear_826_18445" x1="0.017053" y1="0.00100212" x2="0.017053" y2="1332.99" gradientUnits="userSpaceOnUse">
<stop stop-color="#0062AF"/>
<stop offset="1" stop-color="#1C3C6C"/>
</linearGradient>
<linearGradient id="paint1_linear_826_18445" x1="0.017053" y1="0.00100212" x2="0.017053" y2="1332.99" gradientUnits="userSpaceOnUse">
<stop stop-color="#0062AF"/>
<stop offset="1" stop-color="#1C3C6C"/>
</linearGradient>
<linearGradient id="paint2_linear_826_18445" x1="0.017053" y1="0.00100212" x2="0.017053" y2="1332.99" gradientUnits="userSpaceOnUse">
<stop stop-color="#0062AF"/>
<stop offset="1" stop-color="#1C3C6C"/>
</linearGradient>
<linearGradient id="paint3_linear_826_18445" x1="0.017053" y1="0.00100212" x2="0.017053" y2="1332.99" gradientUnits="userSpaceOnUse">
<stop stop-color="#0062AF"/>
<stop offset="1" stop-color="#1C3C6C"/>
</linearGradient>
<linearGradient id="paint4_linear_826_18445" x1="0.017053" y1="0.00100212" x2="0.017053" y2="1332.99" gradientUnits="userSpaceOnUse">
<stop stop-color="#0062AF"/>
<stop offset="1" stop-color="#1C3C6C"/>
</linearGradient>
<linearGradient id="paint5_linear_826_18445" x1="0.017053" y1="0.00100212" x2="0.017053" y2="1332.99" gradientUnits="userSpaceOnUse">
<stop stop-color="#0062AF"/>
<stop offset="1" stop-color="#1C3C6C"/>
</linearGradient>
<linearGradient id="paint6_linear_826_18445" x1="0.017053" y1="0.00100212" x2="0.017053" y2="1332.99" gradientUnits="userSpaceOnUse">
<stop stop-color="#0062AF"/>
<stop offset="1" stop-color="#1C3C6C"/>
</linearGradient>
<linearGradient id="paint7_linear_826_18445" x1="0.017053" y1="0.00100212" x2="0.017053" y2="1332.99" gradientUnits="userSpaceOnUse">
<stop stop-color="#0062AF"/>
<stop offset="1" stop-color="#1C3C6C"/>
</linearGradient>
<linearGradient id="paint8_linear_826_18445" x1="0.017053" y1="0.00100212" x2="0.017053" y2="1332.99" gradientUnits="userSpaceOnUse">
<stop stop-color="#0062AF"/>
<stop offset="1" stop-color="#1C3C6C"/>
</linearGradient>
<linearGradient id="paint9_linear_826_18445" x1="0.017053" y1="0.00100212" x2="0.017053" y2="1332.99" gradientUnits="userSpaceOnUse">
<stop stop-color="#0062AF"/>
<stop offset="1" stop-color="#1C3C6C"/>
</linearGradient>
<linearGradient id="paint10_linear_826_18445" x1="0.017053" y1="0.00100212" x2="0.017053" y2="1332.99" gradientUnits="userSpaceOnUse">
<stop stop-color="#0062AF"/>
<stop offset="1" stop-color="#1C3C6C"/>
</linearGradient>
<linearGradient id="paint11_linear_826_18445" x1="0.017053" y1="0.00100212" x2="0.017053" y2="1332.99" gradientUnits="userSpaceOnUse">
<stop stop-color="#0062AF"/>
<stop offset="1" stop-color="#1C3C6C"/>
</linearGradient>
<linearGradient id="paint12_linear_826_18445" x1="0.017053" y1="0.00100212" x2="0.017053" y2="1332.99" gradientUnits="userSpaceOnUse">
<stop stop-color="#0062AF"/>
<stop offset="1" stop-color="#1C3C6C"/>
</linearGradient>
<linearGradient id="paint13_linear_826_18445" x1="0.017053" y1="0.00100212" x2="0.017053" y2="1332.99" gradientUnits="userSpaceOnUse">
<stop stop-color="#0062AF"/>
<stop offset="1" stop-color="#1C3C6C"/>
</linearGradient>
<linearGradient id="paint14_linear_826_18445" x1="0.017053" y1="0.00100212" x2="0.017053" y2="1332.99" gradientUnits="userSpaceOnUse">
<stop stop-color="#0062AF"/>
<stop offset="1" stop-color="#1C3C6C"/>
</linearGradient>
<linearGradient id="paint15_linear_826_18445" x1="0.017053" y1="0.00100212" x2="0.017053" y2="1332.99" gradientUnits="userSpaceOnUse">
<stop stop-color="#0062AF"/>
<stop offset="1" stop-color="#1C3C6C"/>
</linearGradient>
<linearGradient id="paint16_linear_826_18445" x1="0.017053" y1="0.00100212" x2="0.017053" y2="1332.99" gradientUnits="userSpaceOnUse">
<stop stop-color="#0062AF"/>
<stop offset="1" stop-color="#1C3C6C"/>
</linearGradient>
<linearGradient id="paint17_linear_826_18445" x1="0.017053" y1="0.00100212" x2="0.017053" y2="1332.99" gradientUnits="userSpaceOnUse">
<stop stop-color="#0062AF"/>
<stop offset="1" stop-color="#1C3C6C"/>
</linearGradient>
<linearGradient id="paint18_linear_826_18445" x1="0.017053" y1="0.00100212" x2="0.017053" y2="1332.99" gradientUnits="userSpaceOnUse">
<stop stop-color="#0062AF"/>
<stop offset="1" stop-color="#1C3C6C"/>
</linearGradient>
<linearGradient id="paint19_linear_826_18445" x1="0.017053" y1="0.00100212" x2="0.017053" y2="1332.99" gradientUnits="userSpaceOnUse">
<stop stop-color="#0062AF"/>
<stop offset="1" stop-color="#1C3C6C"/>
</linearGradient>
<linearGradient id="paint20_linear_826_18445" x1="0.017053" y1="0.00100212" x2="0.017053" y2="1332.99" gradientUnits="userSpaceOnUse">
<stop stop-color="#0062AF"/>
<stop offset="1" stop-color="#1C3C6C"/>
</linearGradient>
<linearGradient id="paint21_linear_826_18445" x1="0.017053" y1="0.00100212" x2="0.017053" y2="1332.99" gradientUnits="userSpaceOnUse">
<stop stop-color="#0062AF"/>
<stop offset="1" stop-color="#1C3C6C"/>
</linearGradient>
<linearGradient id="paint22_linear_826_18445" x1="0.017053" y1="0.00100212" x2="0.017053" y2="1332.99" gradientUnits="userSpaceOnUse">
<stop stop-color="#0062AF"/>
<stop offset="1" stop-color="#1C3C6C"/>
</linearGradient>
<linearGradient id="paint23_linear_826_18445" x1="0.017053" y1="0.00100212" x2="0.017053" y2="1332.99" gradientUnits="userSpaceOnUse">
<stop stop-color="#0062AF"/>
<stop offset="1" stop-color="#1C3C6C"/>
</linearGradient>
<linearGradient id="paint24_linear_826_18445" x1="0.017053" y1="0.00100212" x2="0.017053" y2="1332.99" gradientUnits="userSpaceOnUse">
<stop stop-color="#0062AF"/>
<stop offset="1" stop-color="#1C3C6C"/>
</linearGradient>
<linearGradient id="paint25_linear_826_18445" x1="0.017053" y1="0.00100212" x2="0.017053" y2="1332.99" gradientUnits="userSpaceOnUse">
<stop stop-color="#0062AF"/>
<stop offset="1" stop-color="#1C3C6C"/>
</linearGradient>
<linearGradient id="paint26_linear_826_18445" x1="0.017053" y1="0.00100212" x2="0.017053" y2="1332.99" gradientUnits="userSpaceOnUse">
<stop stop-color="#0062AF"/>
<stop offset="1" stop-color="#1C3C6C"/>
</linearGradient>
<linearGradient id="paint27_linear_826_18445" x1="0.017053" y1="0.00100212" x2="0.017053" y2="1332.99" gradientUnits="userSpaceOnUse">
<stop stop-color="#0062AF"/>
<stop offset="1" stop-color="#1C3C6C"/>
</linearGradient>
<linearGradient id="paint28_linear_826_18445" x1="0.017053" y1="0.00100212" x2="0.017053" y2="1332.99" gradientUnits="userSpaceOnUse">
<stop stop-color="#0062AF"/>
<stop offset="1" stop-color="#1C3C6C"/>
</linearGradient>
<linearGradient id="paint29_linear_826_18445" x1="0.017053" y1="0.00100212" x2="0.017053" y2="1332.99" gradientUnits="userSpaceOnUse">
<stop stop-color="#0062AF"/>
<stop offset="1" stop-color="#1C3C6C"/>
</linearGradient>
<linearGradient id="paint30_linear_826_18445" x1="0.017053" y1="0.00100212" x2="0.017053" y2="1332.99" gradientUnits="userSpaceOnUse">
<stop stop-color="#0062AF"/>
<stop offset="1" stop-color="#1C3C6C"/>
</linearGradient>
<linearGradient id="paint31_linear_826_18445" x1="0.017053" y1="0.00100212" x2="0.017053" y2="1332.99" gradientUnits="userSpaceOnUse">
<stop stop-color="#0062AF"/>
<stop offset="1" stop-color="#1C3C6C"/>
</linearGradient>
<linearGradient id="paint32_linear_826_18445" x1="0.017053" y1="0.00100212" x2="0.017053" y2="1332.99" gradientUnits="userSpaceOnUse">
<stop stop-color="#0062AF"/>
<stop offset="1" stop-color="#1C3C6C"/>
</linearGradient>
<clipPath id="clip0_826_18445">
<rect width="994" height="1334" fill="white"/>
</clipPath>
</defs>
</svg>
