<svg width="994" height="1334" viewBox="0 0 994 1334" fill="none" xmlns="http://www.w3.org/2000/svg">
<g clip-path="url(#clip0_823_20291)">
<path fill-rule="evenodd" clip-rule="evenodd" d="M206.004 638.79V16.999H788.005V638.79C738.025 749.707 626.465 826.997 497.005 826.997C367.534 826.997 255.984 749.707 206.004 638.79ZM788.005 910.835V1316.4C788.005 1316.4 509.005 1165.99 500.005 1165.99C491.005 1165.99 206.004 1316.4 206.004 1316.4V910.835C287.824 970.065 388.364 1004.99 497.005 1004.99C605.645 1004.99 706.185 970.065 788.005 910.835ZM215.774 896.915C212.484 894.535 209.224 892.115 206.004 889.645C91.154 801.913 17.0039 663.547 17.0039 507.998C17.0039 360.265 83.884 228.031 189.004 139.951V373.597C170.994 414.763 161.004 460.223 161.004 507.998C161.004 569.173 177.384 626.551 206.004 675.981C264.134 776.39 372.734 843.997 497.005 843.997C621.275 843.997 729.875 776.39 788.005 675.981C816.615 626.551 833.005 569.173 833.005 507.998C833.005 460.223 823.015 414.763 805.005 373.597V139.951C910.115 228.031 977.005 360.265 977.005 507.998C977.005 663.547 902.855 801.913 788.005 889.645C784.775 892.115 781.525 894.535 778.235 896.915C778.165 896.965 778.105 897.015 778.035 897.065C758.005 911.565 736.815 924.555 714.635 935.865C649.295 969.195 575.325 987.995 497.005 987.995H496.985C418.654 987.995 344.705 969.195 279.374 935.865C257.194 924.555 236.004 911.565 215.974 897.065C215.904 897.015 215.844 896.965 215.774 896.915Z" fill="url(#paint0_linear_823_20291)"/>
<path fill-rule="evenodd" clip-rule="evenodd" d="M788.005 889.655V910.835C706.185 970.065 605.645 1004.99 497.004 1004.99C388.364 1004.99 287.824 970.065 206.004 910.835V889.655C209.224 892.115 212.484 894.535 215.774 896.915C215.844 896.965 215.904 897.015 215.974 897.065C236.004 911.565 257.194 924.555 279.374 935.865C344.704 969.195 418.654 987.985 496.984 987.995H497.004C575.325 987.995 649.295 969.195 714.635 935.865C736.815 924.555 758.005 911.565 778.035 897.065C778.105 897.015 778.165 896.965 778.235 896.915C781.525 894.535 784.785 892.115 788.005 889.655ZM189.004 139.952C194.564 135.292 200.234 130.756 206.004 126.347V638.786C255.984 749.705 367.534 826.995 497.004 826.995C626.475 826.995 738.025 749.705 788.005 638.786V126.347C793.775 130.756 799.445 135.292 805.005 139.952V373.596C823.015 414.766 833.005 460.226 833.005 507.996C833.005 569.176 816.615 626.556 788.005 675.976C729.875 776.395 621.275 843.995 497.004 843.995C372.734 843.995 264.134 776.395 206.004 675.976C177.394 626.556 161.004 569.176 161.004 507.996C161.004 460.226 170.994 414.766 189.004 373.596V139.952Z" fill="white"/>
<path fill-rule="evenodd" clip-rule="evenodd" d="M499.955 1184.29C494.565 1186.75 484.434 1191.45 473.534 1196.86C396.074 1235.31 213.934 1331.44 213.934 1331.44C208.664 1334.22 202.324 1334.04 197.224 1330.96C192.124 1327.88 189.004 1322.36 189.004 1316.4V897.965C73.904 806.91 0.00390625 666.015 0.00390625 507.998C0.00390625 355.036 69.2441 218.119 178.084 126.921C181.684 123.907 185.324 120.944 189.004 118.031V16.999C189.004 7.61001 196.614 -0.000976562 206.004 -0.000976562H788.005C797.395 -0.000976562 805.005 7.61001 805.005 16.999V118.031C808.685 120.944 812.325 123.907 815.925 126.921C924.755 218.119 994.005 355.036 994.005 507.998C994.005 666.015 920.105 806.91 805.005 897.965V1316.4C805.005 1322.38 801.855 1327.93 796.715 1331C791.575 1334.07 785.205 1334.2 779.935 1331.36C779.935 1331.36 601.645 1235.25 525.735 1196.8C515.115 1191.42 505.235 1186.75 499.955 1184.29ZM206.004 889.645V1316.4C206.004 1316.4 491.005 1165.99 500.005 1165.99C509.005 1165.99 788.005 1316.4 788.005 1316.4V889.645C902.855 801.913 977.005 663.547 977.005 507.998C977.005 360.265 910.115 228.031 805.005 139.951C799.445 135.292 793.775 130.755 788.005 126.347V16.999H206.004V126.347C200.234 130.755 194.564 135.292 189.004 139.951C83.884 228.031 17.0039 360.265 17.0039 507.998C17.0039 663.547 91.1541 801.913 206.004 889.645Z" fill="white"/>
<path d="M363 629.174L383.05 598.558L364.881 570.504H378.728L390.494 589.354L402.02 570.504H415.747L397.498 598.998L417.548 629.174H403.261L390.254 608.884L377.207 629.174H363Z" fill="white"/>
<path d="M440.48 629.174L460.53 598.558L442.361 570.504H456.208L467.974 589.354L479.5 570.504H493.227L474.977 598.998L495.028 629.174H480.74L467.734 608.884L454.687 629.174H440.48Z" fill="white"/>
<path d="M517.959 629.174L538.01 598.558L519.84 570.504H533.687L545.453 589.354L556.979 570.504H570.706L552.457 598.998L572.507 629.174H558.22L545.213 608.884L532.167 629.174H517.959Z" fill="white"/>
<path d="M595.439 629.174L615.489 598.558L597.32 570.504H611.167L622.933 589.354L634.459 570.504H648.186L629.937 598.998L649.987 629.174H635.7L622.693 608.884L609.646 629.174H595.439Z" fill="white"/>
<path d="M393.484 239.406C393.484 244.114 392.48 248.684 390.474 253.114C389.292 255.676 387.528 258.342 385.176 261.11C378.946 267.62 371.604 270.872 363.16 270.872C359.006 270.872 354.814 269.904 350.596 267.964C349 267.204 347.096 265.99 344.884 264.33L343.012 262.668C341.35 261.008 340.072 259.554 339.17 258.308C335.086 252.562 333.042 246.296 333.042 239.51V238.992C333.042 231.514 335.362 224.834 340 218.95C340.486 218.258 341.696 216.976 343.638 215.106C345.714 213.238 347.79 211.784 349.868 210.744C354.502 208.53 358.834 207.422 362.848 207.422C371.846 207.422 379.464 210.882 385.694 217.806C390.89 224.108 393.484 231.168 393.484 238.992V239.406ZM409.996 219.882C407.92 214.346 404.49 208.842 399.716 203.37C397.288 200.95 395.458 199.252 394.212 198.282C384.864 191.015 374.582 187.381 363.366 187.381H363.262C353.568 187.381 344.948 190.393 337.406 196.414C335.604 197.868 334.186 199.288 333.15 200.672H333.042V136.495L332.94 136.391H313.104L313 136.495V288.422H333.042V278.038C334.218 279.284 335.362 280.426 336.472 281.464C338.55 283.196 340.378 284.546 341.976 285.514C344.052 286.76 346.404 287.834 349.038 288.734C354.298 290.188 358.764 290.916 362.432 290.916H363.782C372.714 290.916 381.264 288.39 389.432 283.334C391.094 282.366 392.896 281.12 394.832 279.596C396.494 278.28 398.674 276.1 401.376 273.054C403.868 269.938 405.806 267.066 407.192 264.434C411.48 256.404 413.628 247.992 413.628 239.198C413.628 232.552 412.42 226.114 409.996 219.882Z" fill="white"/>
<path d="M433.898 136.391H453.734L453.836 136.495V288.318L453.734 288.422H433.898L433.796 288.318V136.495L433.898 136.391Z" fill="white"/>
<path d="M517.074 288.424H516.136C498.274 288.424 485.466 281.674 477.714 268.174C475.012 262.844 473.664 256.578 473.664 249.378V189.25L473.976 188.938H493.396L493.704 189.25V249.586C493.704 258.1 497.238 263.708 504.3 266.408C507.278 267.724 511.086 268.382 515.72 268.382H517.382C525.83 268.382 531.818 267.066 535.352 264.436C539.986 261.666 542.304 256.542 542.304 249.066V189.25L542.516 188.938H562.038L562.244 189.25V287.594L562.038 287.904H542.516L542.304 287.594V280.946H542.1C538.566 283.578 533.964 285.724 528.29 287.386C525.242 288.078 521.504 288.424 517.074 288.424Z" fill="white"/>
<path d="M654.801 226.322H604.434L606.096 222.48C612.188 212.442 619.972 207.423 629.462 207.423C635.692 207.423 641.438 209.672 646.698 214.172C650.922 218.672 653.618 222.688 654.801 226.218V226.322ZM669.755 211.16C668.023 207.907 664.873 204.031 660.303 199.531C650.961 191.431 641.228 187.381 631.122 187.381H628.112C618.904 187.381 609.728 190.877 600.588 197.869C588.198 209.082 582.004 222.792 582.004 238.992V239.406C582.004 251.176 585.532 262.012 592.594 271.912C602.838 284.582 615.096 290.916 629.358 290.916H629.774C643.616 290.916 655.63 284.928 665.807 272.95C669.199 268.104 671.379 264.468 672.349 262.046C672.209 261.908 666.189 259.138 654.283 253.738C654.073 253.808 653.381 254.984 652.207 257.27C646.108 266.338 638.562 270.872 629.564 270.872C622.432 270.872 616.066 267.862 610.456 261.838C606.788 258.17 604.154 252.63 602.564 245.222H676.919C677.195 245.222 677.335 244.254 677.335 242.314V239.198C677.335 229.438 674.805 220.09 669.755 211.16Z" fill="white"/>
<path d="M389.162 439.8C380.994 450.116 371.198 455.274 359.772 455.274C349.246 455.274 340.076 451.016 332.254 442.5C325.122 433.916 321.555 424.224 321.555 413.424C321.555 403.454 324.464 394.488 330.28 386.528C338.446 376.282 348.212 371.156 359.568 371.156C367.318 371.156 374.694 373.72 381.686 378.842C392.346 388.052 397.674 399.474 397.674 413.112C397.674 422.944 394.838 431.84 389.162 439.8ZM393.732 379.258C384.108 368.388 372.79 362.954 359.772 362.954C354.998 362.954 350.32 363.716 345.752 365.238C335.092 369.256 327.058 375.692 321.657 384.554H321.555V310.926L321.241 310.614H313.663L313.349 310.926V462.44L313.663 462.648H321.241L321.555 462.44V441.878H321.657L323.843 445.304C333.812 457.422 345.578 463.478 359.152 463.478H360.398C371.058 463.478 381.098 459.256 390.51 450.808C400.756 440.008 405.88 427.72 405.88 413.942V412.488C405.88 400.374 401.83 389.298 393.732 379.258Z" fill="white"/>
<path d="M491.665 441.564C483.913 450.288 474.845 454.65 464.459 454.65C456.843 454.65 449.641 452.122 442.859 447.068C432.335 438.068 427.075 426.784 427.075 413.214C427.075 404.49 429.567 396.218 434.551 388.394C442.789 377.456 452.721 371.988 464.353 371.988C474.597 371.988 483.569 376.176 491.249 384.552C498.311 392.93 501.845 402.484 501.845 413.214C501.845 423.946 498.451 433.396 491.665 441.564ZM499.557 381.852C489.863 369.944 478.271 363.992 464.767 363.992H464.249C452.689 363.992 442.337 368.492 433.197 377.492C423.783 387.668 419.075 399.542 419.075 413.11V413.526C419.075 424.742 422.397 435.022 429.045 444.37C438.873 456.554 450.611 462.646 464.249 462.646C476.091 462.646 486.475 458.25 495.403 449.458C505.029 439.072 509.839 427.268 509.839 414.046V412.592C509.839 401.722 506.415 391.476 499.557 381.852Z" fill="white"/>
<path d="M596.602 441.564C588.85 450.288 579.782 454.65 569.396 454.65C561.78 454.65 554.582 452.122 547.796 447.068C537.272 438.068 532.012 426.784 532.012 413.214C532.012 404.49 534.504 396.218 539.488 388.394C547.726 377.456 557.664 371.988 569.294 371.988C579.538 371.988 588.504 376.176 596.186 384.552C603.248 392.93 606.782 402.484 606.782 413.214C606.782 423.946 603.388 433.396 596.602 441.564ZM604.494 381.852C594.806 369.944 583.208 363.992 569.71 363.992H569.186C557.626 363.992 547.278 368.492 538.14 377.492C528.72 387.668 524.016 399.542 524.016 413.11V413.526C524.016 424.742 527.34 435.022 533.986 444.37C543.816 456.554 555.548 462.646 569.186 462.646C581.028 462.646 591.412 458.25 600.34 449.458C609.964 439.072 614.776 427.268 614.776 414.046V412.592C614.776 401.722 611.352 391.476 604.494 381.852Z" fill="white"/>
<path d="M628.968 310.614H636.548L636.86 310.926V413.32L688.991 363.888H700.831V364.096L656.902 405.842V405.946L701.451 462.336V462.646H690.965C690.479 462.302 685.495 455.966 676.01 443.642C660.78 424.398 652.434 413.7 650.984 411.554H650.774L636.86 424.846V462.336L636.548 462.646H628.968L628.656 462.336V310.926L628.968 310.614Z" fill="white"/>
<path d="M232.452 786.554L202.23 817.678L195.672 811.31L225.894 780.186L214.14 768.774L219.798 762.947L250.392 792.655L244.735 798.481L232.452 786.554Z" fill="white"/>
<path d="M248.649 856.152L250.383 830.887C249.289 830.04 247.79 828.816 245.885 827.215L232.997 844.444L225.396 838.758L256.247 797.516C256.66 797.825 258.295 798.946 261.152 800.878C264.023 802.792 266.304 804.38 267.993 805.644C278.465 813.477 280.669 821.448 274.604 829.556C272.779 831.995 270.392 833.679 267.445 834.606C264.498 835.533 261.617 835.588 258.804 834.771L257.095 862.47L248.649 856.152ZM259.089 809.564L250.518 821.022C251.785 822.145 252.775 822.974 253.488 823.507C256.547 825.795 259.104 827.034 261.157 827.224C263.229 827.428 265.199 826.281 267.066 823.785C268.582 821.759 268.882 819.773 267.966 817.829C267.049 815.885 264.958 813.691 261.693 811.248C260.904 810.659 260.036 810.097 259.089 809.564Z" fill="white"/>
<path d="M293.616 884.374L295.606 873.455L280.343 864.594L271.999 871.823L263.213 866.722L307.181 831.881L310.647 833.894L302.342 889.44L293.616 884.374ZM301.006 846.508L286.106 859.85L296.808 866.063L301.006 846.508Z" fill="white"/>
<path d="M325.21 899.72L314.669 895.311L334.531 847.829C341.355 850.404 345.632 852.054 347.362 852.777C354.281 855.672 358.912 859.997 361.255 865.753C363.628 871.497 363.413 877.72 360.609 884.423C353.464 901.504 341.664 906.603 325.21 899.72ZM339.884 858.719L326.317 891.152C327.625 891.852 329.068 892.531 330.647 893.192C334.906 894.974 338.883 894.82 342.576 892.732C346.291 890.653 349.311 886.836 351.635 881.279C355.886 871.116 353.288 864.059 343.839 860.107C342.931 859.727 341.612 859.264 339.884 858.719Z" fill="white"/>
<path d="M365.627 915.029L380.927 865.85L389.655 868.565L374.355 917.744L365.627 915.029Z" fill="white"/>
<path d="M425.46 930.623L407.513 893.679L401.107 924.952L392.496 923.188L402.84 872.697L407.145 873.579L424.741 908.908L430.978 878.462L439.588 880.226L429.111 931.37L425.46 930.623Z" fill="white"/>
<path d="M489.082 888.686L484.744 895.747C483.736 894.713 482.143 893.65 479.964 892.557C477.787 891.441 475.892 890.826 474.278 890.712C469.228 890.358 465.121 891.796 461.957 895.028C458.795 898.236 457.012 902.716 456.608 908.467C456.224 913.938 457.343 918.411 459.966 921.884C462.612 925.359 466.401 927.27 471.334 927.616C474.584 927.845 477.324 927.144 479.552 925.515L480.262 915.415L473.143 914.915L473.689 907.13L489.927 908.27L488.311 931.276C486.012 932.9 483.109 934.094 479.601 934.858C476.119 935.6 472.683 935.852 469.292 935.614C461.928 935.097 456.252 932.278 452.265 927.158C448.303 922.017 446.6 915.483 447.157 907.557C447.713 899.631 450.515 893.355 455.563 888.729C460.61 884.102 467.109 882.068 475.058 882.626C480.692 883.022 485.367 885.042 489.082 888.686Z" fill="white"/>
<path d="M581.841 928.035L573.065 929.243L563.982 902.458L557.588 932.049L554.349 932.495L540.195 905.734L538.481 934.005L529.739 935.209L532.983 882.737L537.789 882.075L553.563 914.93L559.626 879.068L564.397 878.411L581.841 928.035Z" fill="white"/>
<path d="M592.42 880.351L595.632 891.974L612.033 887.442L614.102 894.931L597.701 899.463L601.811 914.339L624.312 908.122L626.475 915.949L595.164 924.601L581.447 874.957L613.131 866.203L615.293 874.03L592.42 880.351Z" fill="white"/>
<path d="M686.595 892.267L678.427 895.698L662.744 872.162L664.198 902.401L661.184 903.667L640.606 881.462L646.242 909.219L638.107 912.637L627.706 861.104L632.179 859.225L655.893 886.899L652.501 850.687L656.942 848.822L686.595 892.267Z" fill="white"/>
<path d="M712.281 877.478L698.712 885.476L672.577 841.137C678.387 837.331 682.493 834.72 684.896 833.304C689.499 830.591 693.676 829.462 697.427 829.917C701.186 830.34 704.143 832.379 706.297 836.034C708.368 839.547 708.147 843.418 705.634 847.647C712.276 846.316 717.365 848.649 720.9 854.646C723.28 858.684 723.648 862.793 722.004 866.972C720.347 871.132 717.106 874.634 712.281 877.478ZM684.164 842.795L690.431 853.425C691.69 852.792 692.985 852.083 694.318 851.297C699.447 848.274 700.874 844.834 698.601 840.978C696.59 837.566 693.252 837.234 688.588 839.983C687.356 840.709 685.882 841.647 684.164 842.795ZM694.055 859.573L702.695 874.232C704.373 873.433 705.707 872.742 706.697 872.159C710.21 870.088 712.403 867.993 713.276 865.873C714.168 863.742 713.8 861.293 712.169 858.527C710.681 856.003 708.861 854.6 706.709 854.318C704.557 854.036 701.643 854.978 697.969 857.144C697.201 857.596 695.897 858.406 694.055 859.573Z" fill="white"/>
<path d="M723.184 818.635L730.475 828.24L744.028 817.951L748.726 824.139L735.173 834.428L744.506 846.72L763.098 832.605L768.009 839.073L742.136 858.715L710.993 817.694L737.174 797.818L742.085 804.286L723.184 818.635Z" fill="white"/>
<path d="M801.607 808.14L776.925 802.47C775.917 803.417 774.473 804.706 772.594 806.337L787.591 821.765L780.785 828.381L744.885 791.451C745.254 791.091 746.617 789.652 748.973 787.133C751.313 784.597 753.239 782.594 754.752 781.124C764.129 772.008 772.347 771.08 779.404 778.34C781.528 780.524 782.817 783.145 783.271 786.201C783.725 789.257 783.328 792.111 782.081 794.761L809.169 800.788L801.607 808.14ZM757.229 790.531L767.203 800.791C768.511 799.716 769.484 798.868 770.123 798.247C772.862 795.584 774.486 793.253 774.995 791.255C775.521 789.241 774.697 787.116 772.524 784.88C770.76 783.066 768.846 782.458 766.782 783.059C764.719 783.66 762.225 785.381 759.3 788.224C758.595 788.91 757.904 789.679 757.229 790.531Z" fill="white"/>
</g>
<defs>
<linearGradient id="paint0_linear_823_20291" x1="17.0053" y1="17" x2="17.0053" y2="1316" gradientUnits="userSpaceOnUse">
<stop stop-color="#0062AF"/>
<stop offset="1" stop-color="#1C3C6C"/>
</linearGradient>
<clipPath id="clip0_823_20291">
<rect width="994" height="1334" fill="white"/>
</clipPath>
</defs>
</svg>
